<?xml version="1.0" standalone="no"?>
<!DOCTYPE svg PUBLIC "-//W3C//DTD SVG 20010904//EN"
 "http://www.w3.org/TR/2001/REC-SVG-20010904/DTD/svg10.dtd">
<svg version="1.0" xmlns="http://www.w3.org/2000/svg"
 width="300.000000pt" height="396.000000pt" viewBox="0 0 300.000000 396.000000"
 preserveAspectRatio="xMidYMid meet">
<metadata>
Created by potrace 1.10, written by Peter Selinger 2001-2011
</metadata>
<g transform="translate(0.000000,396.000000) scale(0.050000,-0.050000)"
fill="#000000" stroke="none">
<path d="M5745 7905 c41 -4 109 -4 150 0 41 5 8 8 -75 8 -82 0 -116 -3 -75 -8z"/>
<path d="M5913 7607 c-7 -8 -13 -36 -13 -64 0 -27 -16 -68 -35 -89 -34 -39
-34 -39 10 -12 25 15 46 41 46 58 1 16 6 50 10 75 9 47 5 54 -18 32z"/>
<path d="M2009 7489 c-38 -31 -38 -31 1 -12 22 10 82 17 133 16 52 -2 89 3 84
12 -17 27 -179 16 -218 -16z"/>
<path d="M2857 7511 c-5 -6 -40 -12 -78 -14 -38 -2 -84 -17 -103 -32 -18 -16
-43 -23 -55 -15 -13 7 -58 -5 -102 -28 -44 -23 -99 -42 -124 -42 -25 0 -130
-4 -233 -9 l-189 -10 -111 -113 c-61 -62 -133 -127 -160 -145 -134 -88 -186
-426 -81 -534 32 -33 59 -75 59 -93 0 -18 11 -37 25 -41 19 -7 16 -24 -10 -70
-42 -74 -44 -129 -7 -212 16 -35 33 -103 39 -153 5 -49 25 -166 44 -260 18
-93 38 -201 44 -240 l10 -70 -49 45 c-97 90 -163 38 -186 -145 -17 -140 -17
-534 0 -597 22 -76 76 -193 90 -193 8 0 34 -18 59 -39 24 -21 55 -42 68 -47
14 -4 28 -85 36 -206 15 -229 68 -404 171 -565 88 -139 93 -260 17 -424 -84
-180 -57 -407 97 -836 72 -200 234 -468 300 -499 27 -12 63 -47 82 -78 18 -31
70 -83 114 -116 173 -127 256 -203 310 -284 31 -46 106 -138 166 -204 61 -67
133 -148 160 -181 l50 -59 13 97 c12 96 81 198 337 501 33 39 60 84 60 100 1
17 28 56 61 88 32 32 59 71 59 86 0 15 14 32 30 39 17 6 30 20 30 30 0 11 21
48 47 83 26 35 59 96 73 134 15 39 51 124 80 190 64 146 110 311 140 510 13
83 28 179 34 215 7 43 -7 108 -42 195 -65 164 -65 180 8 290 91 136 163 379
175 596 9 154 17 189 48 206 88 47 216 351 187 445 -7 23 -17 164 -21 312 -6
186 -17 273 -34 284 -46 29 -95 18 -139 -33 -24 -27 -50 -50 -58 -50 -19 0 74
334 108 388 51 79 95 315 75 401 -23 99 -13 115 66 105 87 -10 160 23 130 60
-17 20 -14 47 15 110 39 87 40 141 5 252 -14 44 -31 63 -48 56 -15 -6 -53 15
-83 45 -31 31 -94 73 -141 93 -47 21 -85 44 -85 53 0 8 -19 20 -42 28 -58 18
-227 122 -366 225 -159 118 -366 244 -402 244 -17 0 -30 9 -30 20 0 11 11 20
24 20 18 0 18 6 2 22 -13 13 -34 16 -49 6 -38 -24 -78 -23 -147 3 -117 44
-441 80 -459 51 -7 -12 -29 -22 -47 -22 -29 1 -30 3 -4 20 25 16 23 19 -12 20
-23 0 -46 -4 -51 -9z m496 -220 c-2 -11 11 -20 27 -22 17 -2 40 -4 53 -6 14
-2 19 -21 12 -48 -11 -40 -8 -42 21 -18 21 17 48 21 78 11 25 -9 61 -16 79
-17 38 -1 77 -31 41 -31 -17 0 -17 -13 0 -50 20 -44 100 -74 94 -35 -7 40 6
40 49 -1 87 -83 123 -105 173 -104 40 0 49 -9 45 -45 -5 -50 14 -58 51 -21 19
19 24 17 24 -7 0 -34 193 -144 222 -126 9 6 12 -2 6 -18 -7 -18 5 -34 30 -42
23 -8 39 -20 37 -27 -3 -8 11 -36 30 -63 19 -28 35 -39 35 -25 0 40 43 27 54
-16 6 -22 19 -40 28 -40 24 0 23 -65 -2 -131 -18 -47 -25 -50 -54 -26 -21 17
-28 18 -19 3 16 -26 -20 -102 -65 -137 -15 -13 -30 -58 -33 -101 -5 -83 -58
-101 -96 -34 -15 26 -21 26 -37 3 -15 -21 -17 -19 -9 7 7 22 -5 46 -32 65 -24
17 -35 31 -24 31 10 0 6 9 -10 19 -22 14 -23 24 -5 47 20 24 15 28 -30 26 -38
-1 -57 10 -65 38 -9 33 -29 40 -105 41 -62 1 -108 14 -134 38 -23 20 -54 31
-71 24 -17 -6 -28 -2 -26 10 5 23 -35 35 -139 40 -58 3 -61 6 -30 30 37 28 34
29 -86 36 -26 2 -38 15 -34 37 4 22 -7 34 -30 34 -27 -1 -30 -5 -9 -18 14 -9
26 -22 25 -29 -7 -53 6 -78 58 -110 76 -46 59 -65 -33 -37 -41 13 -80 42 -92
68 -32 69 -83 60 -68 -12 8 -41 3 -62 -18 -70 -16 -6 -29 -1 -29 10 0 11 -8
15 -19 9 -10 -6 -23 -3 -30 7 -6 10 -27 16 -46 13 -19 -3 -24 -1 -10 3 14 5
25 22 25 39 0 44 -68 24 -77 -22 -11 -55 -57 -98 -70 -66 -10 24 -32 5 -63
-55 -6 -13 -14 -11 -21 3 -13 27 -89 11 -89 -19 0 -11 -6 -15 -13 -8 -7 7 0
28 15 47 26 31 24 31 -37 0 -36 -19 -65 -44 -65 -56 0 -15 -10 -14 -30 3 -16
14 -48 20 -70 14 -27 -7 -35 -3 -26 13 23 35 25 73 4 73 -10 0 -18 -13 -18
-30 0 -16 -14 -30 -32 -30 -22 0 -28 -11 -20 -33 13 -33 -42 -31 -133 4 -44
17 -73 -47 -33 -73 25 -16 11 -26 -27 -20 -8 1 -15 -11 -15 -28 0 -26 77 -43
145 -32 38 6 9 -40 -40 -66 -56 -29 -167 0 -132 34 7 8 1 14 -14 14 -21 0 -22
5 -3 24 29 29 31 56 4 56 -11 0 -20 -11 -20 -23 0 -49 -63 -97 -100 -77 -29
16 -38 10 -48 -30 -9 -35 -22 -45 -45 -36 -22 8 -29 5 -20 -9 19 -32 -24 -53
-55 -27 -19 16 -25 14 -25 -8 0 -17 9 -30 21 -30 32 -1 -33 -39 -65 -40 -24 0
-24 5 0 34 23 29 23 31 -3 17 -24 -14 -25 -12 -6 9 20 21 14 36 -27 70 -42 37
-45 46 -19 57 18 6 32 27 32 45 0 27 -5 28 -30 8 -36 -30 -41 1 -6 36 19 19
19 29 0 48 -29 29 -32 76 -4 76 11 0 20 -15 20 -33 0 -19 6 -28 12 -21 7 6 3
39 -9 73 -12 37 -13 61 -2 61 10 0 19 9 19 20 0 11 -11 20 -25 20 -61 1 -122
99 -96 155 17 38 18 56 3 61 -12 4 -22 38 -22 75 0 52 7 65 30 56 17 -6 30 -1
30 11 0 12 -9 22 -20 22 -12 0 -10 19 3 49 13 28 31 45 40 39 9 -6 17 8 17 31
0 22 10 41 21 41 13 0 17 -19 9 -45 -9 -34 -7 -38 8 -14 10 16 22 43 26 60 11
52 136 163 169 151 16 -7 42 -12 57 -12 15 0 41 -14 59 -31 17 -18 31 -22 31
-10 0 11 18 21 39 21 22 0 63 11 91 24 43 19 56 18 71 -5 11 -18 10 -32 -2
-36 -10 -3 -18 -21 -17 -40 1 -21 5 -24 11 -8 6 14 21 19 34 12 13 -7 16 -6 8
3 -8 9 -5 28 8 43 15 19 16 27 0 27 -39 0 -3 51 38 55 41 3 53 -24 19 -45 -11
-7 -20 -27 -20 -45 0 -26 5 -28 25 -8 14 14 25 36 25 49 0 16 37 24 104 23 58
0 98 8 92 18 -7 10 17 14 56 8 43 -6 75 0 88 17 36 47 230 60 231 16 1 -35 3
-35 35 5 34 44 164 58 157 18z m-618 -24 c4 -14 -8 -21 -29 -17 -20 4 -54 8
-76 9 -33 1 -35 5 -10 21 38 25 104 17 115 -13z m853 -972 c38 23 136 3 193
-39 31 -22 65 -35 77 -27 12 7 27 0 34 -17 9 -23 23 -25 61 -11 70 27 132 24
122 -6 -5 -14 -18 -25 -30 -25 -12 0 -29 -8 -38 -18 -10 -11 -7 -13 7 -5 14 8
34 -4 47 -29 16 -30 16 -39 1 -29 -14 8 -22 -6 -22 -37 0 -56 81 -124 127
-106 36 14 93 -25 58 -39 -14 -6 -25 -22 -25 -37 0 -15 -11 -31 -25 -36 -17
-6 -9 -23 23 -51 26 -24 38 -43 25 -43 -37 0 -26 -55 22 -107 93 -101 101
-121 118 -287 18 -185 14 -207 -38 -197 -25 5 -35 -6 -35 -39 0 -25 8 -41 18
-35 10 6 13 -9 7 -33 -9 -34 -6 -39 13 -23 34 28 58 2 29 -33 -18 -21 -16 -24
10 -14 25 9 33 0 35 -35 0 -26 6 -36 11 -22 22 53 47 22 44 -54 -3 -74 -36
-169 -37 -105 0 15 -10 20 -22 13 -12 -8 -18 -40 -13 -71 5 -39 -4 -69 -28
-91 -38 -34 -53 -119 -17 -97 23 14 25 6 7 -39 -11 -29 -18 -28 -64 13 -43 38
-46 39 -18 4 19 -23 29 -47 22 -55 -8 -7 -2 -13 12 -13 18 0 20 -7 5 -25 -11
-14 -23 -43 -27 -65 -4 -22 -14 -45 -22 -51 -25 -18 -35 -97 -14 -110 48 -29
-5 -316 -74 -401 -37 -45 -67 -97 -67 -116 0 -91 -99 -213 -170 -210 -86 5
-110 -4 -134 -47 -14 -25 -37 -46 -51 -47 -14 -1 -52 -3 -85 -5 -45 -2 -66
-16 -80 -53 -21 -54 -58 -64 -97 -25 -20 20 -28 19 -42 -3 -9 -15 -31 -22 -49
-16 -17 7 -31 6 -29 -2 6 -46 -9 -64 -53 -64 -27 0 -50 8 -50 19 0 28 59 81
91 81 16 0 29 9 29 20 0 11 -17 20 -39 20 -21 0 -52 18 -67 41 -29 41 -30 41
-69 -14 -35 -48 -45 -52 -73 -29 -21 18 -32 19 -32 4 0 -12 9 -22 20 -22 11 0
20 -13 20 -30 0 -16 -13 -30 -30 -30 -16 0 -37 -2 -45 -5 -8 -3 -13 29 -12 70
2 41 -4 75 -15 75 -10 0 -18 -13 -18 -30 0 -16 -10 -30 -21 -30 -12 0 -17 7
-12 16 6 9 -16 18 -48 20 -33 3 -59 -3 -59 -12 0 -20 -65 -24 -80 -6 -36 43
-154 81 -130 42 7 -12 20 -16 29 -11 18 11 46 -71 30 -87 -5 -5 -20 1 -32 13
-15 15 -35 17 -58 4 -47 -25 -70 33 -23 59 28 16 29 24 8 46 -22 21 -26 21
-20 -3 3 -16 -10 -32 -29 -36 -19 -4 -35 2 -35 14 0 11 9 21 20 21 11 0 20 10
20 22 0 15 -30 18 -93 9 -84 -13 -91 -11 -78 22 9 21 24 69 35 107 11 39 28
79 38 89 23 25 23 57 0 42 -10 -6 -22 0 -27 13 -6 19 -22 16 -62 -10 -52 -34
-73 -94 -33 -94 24 0 25 -21 3 -56 -27 -42 -129 -8 -117 39 6 20 2 37 -8 37
-10 0 -18 24 -18 52 0 42 -6 48 -26 31 -21 -17 -33 -7 -54 47 -15 37 -34 64
-43 58 -9 -6 -11 4 -4 22 8 22 -1 36 -31 44 -41 11 -42 13 -9 49 32 36 32 39
-3 64 -48 36 -53 117 -8 149 20 14 31 38 25 55 -6 16 0 45 15 64 22 30 22 31
-2 10 -33 -30 -88 -34 -70 -5 7 11 2 20 -10 20 -13 0 -19 11 -15 25 5 14 2 45
-7 69 -10 27 -8 50 4 57 13 8 9 26 -11 48 -17 19 -24 42 -16 52 8 10 -1 6 -20
-9 -34 -26 -49 10 -37 84 1 8 -11 41 -27 72 -16 31 -23 63 -16 71 8 7 1 22
-16 32 -23 15 -23 18 -2 19 24 0 24 5 0 34 -18 22 -19 29 -2 19 16 -10 21 -5
13 15 -6 16 -23 25 -36 20 -14 -5 -38 5 -53 23 -31 38 30 178 71 162 13 -5 24
1 25 14 1 13 7 64 13 113 6 50 16 161 23 247 12 143 19 164 82 233 72 80 106
166 58 148 -14 -6 -31 4 -38 21 -6 17 -1 32 13 33 13 2 38 4 54 6 17 1 42 -6
57 -17 45 -32 79 -29 115 11 27 30 28 38 6 39 -20 0 -19 6 6 20 19 11 30 31
25 45 -11 29 80 74 151 74 29 0 72 18 95 40 45 41 278 57 253 16 -7 -10 23 -3
65 15 82 36 241 73 332 77 30 1 55 9 55 18 0 9 8 11 18 5 11 -6 32 2 49 19 17
16 47 30 67 30 20 0 48 9 64 18 15 10 53 10 88 0 33 -9 70 -11 82 -3z m794
-317 c-14 -33 -20 -38 -21 -14 -1 22 -12 31 -31 23 -39 -15 -38 2 3 43 43 43
74 11 49 -52z m-56 -53 c20 -35 34 -125 19 -125 -15 0 -65 95 -65 124 0 20 35
21 46 1z m-2514 -585 c65 0 27 -168 -41 -180 -32 -5 -57 -17 -54 -26 3 -8 -14
-39 -36 -67 -52 -66 -57 -17 -12 110 16 46 24 83 18 83 -7 0 0 15 16 33 21 26
21 35 2 42 -18 6 -19 18 -3 49 21 40 22 40 51 -2 16 -23 43 -42 59 -42z m2728
-69 c0 -16 -8 -34 -18 -40 -17 -11 17 -182 46 -228 9 -15 -5 -15 -46 -1 -32
12 -64 34 -70 51 -7 16 -21 24 -32 17 -49 -30 -18 121 35 174 63 61 85 69 85
27z m-2805 -483 c-26 -25 -75 11 -75 56 l0 45 44 -44 c24 -24 38 -50 31 -57z
m2845 -3 c-1 -58 -35 -98 -61 -72 -17 17 -14 33 14 63 47 51 47 51 47 9z
m-2790 -105 c-1 -75 -38 -101 -66 -46 -24 45 6 133 41 121 14 -5 25 -38 25
-75z m2710 -19 c0 -10 14 -32 31 -50 30 -29 18 -42 -35 -34 -8 2 -9 -12 -2
-30 8 -22 4 -30 -16 -23 -15 5 -28 18 -28 28 0 10 -8 30 -17 44 -9 15 -6 38 8
55 27 33 59 38 59 10z m-2140 -1325 c61 -42 117 -76 126 -76 9 0 40 -28 68
-61 52 -61 218 -154 239 -133 6 6 50 -11 99 -38 71 -40 88 -43 88 -19 0 22 20
31 70 31 39 0 70 -9 70 -21 0 -14 12 -14 39 0 64 35 177 26 187 -14 8 -30 12
-28 24 10 8 24 22 40 31 35 24 -16 515 226 608 299 49 38 60 39 91 1 20 -25
19 -30 -8 -30 -17 0 -32 -10 -32 -21 0 -12 9 -16 20 -9 24 15 22 31 30 -227 4
-113 11 -211 16 -216 26 -26 -158 -494 -187 -476 -8 5 -13 -7 -12 -26 2 -19
-9 -33 -23 -30 -15 3 -23 -9 -20 -29 3 -20 -7 -35 -24 -36 -19 0 -30 -20 -31
-54 0 -30 -16 -71 -35 -91 -19 -21 -34 -45 -34 -54 0 -9 -16 -29 -35 -45 -19
-16 -24 -23 -10 -16 14 7 25 2 25 -10 0 -12 -17 -20 -38 -16 -21 3 -57 -11
-80 -32 -44 -40 -57 -92 -23 -92 11 0 14 16 7 35 -7 19 -6 29 1 23 34 -30 29
-91 -8 -89 -21 0 -38 -6 -38 -15 0 -8 -24 -37 -53 -65 -35 -31 -43 -49 -25
-49 19 0 28 -21 28 -58 -1 -32 -9 -53 -19 -47 -10 6 -13 -3 -6 -22 11 -27 -2
-34 -72 -36 -62 -2 -69 -5 -28 -11 59 -9 65 -58 6 -53 -18 1 -31 -8 -28 -20 2
-13 -7 -43 -21 -68 -13 -25 -19 -45 -12 -45 6 0 -4 -16 -23 -35 -36 -35 -45
-37 -52 -10 -2 8 -25 32 -51 53 -34 26 -46 52 -40 84 5 26 -1 51 -13 56 -15 6
-15 14 2 26 21 15 6 74 -16 67 -24 -7 -138 46 -138 64 0 12 -6 16 -13 9 -7 -7
-30 -3 -51 8 -22 12 -34 26 -28 33 7 6 -25 28 -69 48 -45 20 -76 45 -69 57 7
11 -6 20 -29 20 -23 0 -41 13 -41 31 0 16 -13 35 -30 42 -16 6 -30 24 -30 39
0 15 -9 28 -20 28 -27 0 -209 184 -243 245 -15 27 -48 89 -74 137 -26 49 -60
102 -74 118 -14 17 -30 53 -35 80 -4 28 -17 73 -29 102 -12 28 -26 106 -32
173 -6 68 -21 142 -34 166 -19 36 -18 41 4 28 19 -12 18 -6 -3 20 -23 29 -24
40 -5 46 15 5 20 26 13 55 -9 37 4 61 55 108 37 33 57 61 44 61 -12 1 -20 27
-17 61 3 34 -5 60 -17 60 -13 0 -10 9 6 19 32 21 29 22 181 -83z m634 -76 c14
-37 15 -60 3 -60 -31 0 -77 54 -77 89 0 53 50 34 74 -29z m258 37 c7 -12 -1
-31 -20 -41 -18 -10 -28 -27 -21 -37 6 -11 -3 -19 -21 -19 -20 0 -28 10 -22
25 7 14 18 41 24 60 14 40 39 45 60 12z"/>
<path d="M1980 6709 c-25 -64 -25 -84 -2 -98 10 -6 21 25 25 69 9 93 4 100
-23 29z"/>
<path d="M2829 5788 c6 -51 41 -89 81 -86 11 1 9 6 -5 11 -14 6 -20 19 -14 29
6 10 -2 24 -20 30 -17 7 -26 20 -21 29 6 9 2 21 -8 28 -10 6 -16 -12 -13 -41z"/>
<path d="M2771 5782 c-7 -12 -2 -22 13 -23 16 0 11 -12 -13 -30 -30 -23 -42
-24 -55 -4 -8 14 -15 16 -15 5 0 -33 27 -60 66 -66 23 -4 32 2 23 16 -7 12 -4
33 7 47 12 13 13 36 4 51 -11 18 -20 20 -30 4z"/>
<path d="M2921 5759 c12 -22 15 -60 8 -85 -16 -50 -11 -46 37 30 32 51 32 54
1 42 -21 -8 -29 -5 -20 9 7 11 -1 26 -18 32 -24 10 -26 5 -8 -28z"/>
<path d="M3395 5745 c8 -21 4 -27 -12 -17 -12 8 -23 5 -23 -7 0 -12 12 -27 27
-32 14 -6 26 -23 26 -37 0 -37 -115 -36 -156 1 -19 17 -43 25 -54 19 -11 -7
-39 12 -62 41 -41 52 -141 40 -141 -16 0 -28 24 -19 51 18 37 51 118 -20 88
-78 -14 -25 -14 -37 0 -37 12 0 21 10 21 22 0 12 14 17 30 11 17 -7 30 -1 31
13 0 13 14 6 31 -16 17 -24 48 -38 74 -34 36 5 38 2 14 -15 -18 -12 -21 -21
-6 -21 13 0 29 8 35 18 6 10 29 14 50 8 30 -8 42 3 52 42 7 29 21 52 31 52 9
0 11 -16 4 -35 -11 -28 -8 -31 15 -13 36 28 179 12 180 -19 0 -13 12 -7 27 13
25 33 30 33 60 3 21 -20 32 -23 32 -8 0 37 -64 78 -120 77 -46 -1 -47 -2 -10
-18 36 -16 35 -17 -11 -19 -28 0 -69 12 -90 28 -22 17 -28 30 -14 30 14 1 25
10 25 20 0 11 -15 14 -33 7 -24 -9 -29 -6 -17 14 11 17 8 21 -7 12 -13 -8 -18
-25 -10 -37 9 -14 2 -17 -19 -9 -18 7 -38 4 -45 -7 -6 -10 -21 -19 -33 -19
-13 0 -12 11 4 30 14 17 22 31 17 32 -67 13 -73 12 -62 -17z"/>
<path d="M3811 5721 c-6 -10 -3 -24 9 -31 11 -7 20 -29 20 -50 0 -73 87 -72
111 2 6 21 21 33 32 26 11 -7 8 7 -6 30 -36 57 -64 53 -49 -6 7 -30 1 -57 -18
-72 -19 -16 -30 -17 -30 -4 0 12 9 27 21 35 15 9 15 20 0 38 -11 13 -15 31 -7
38 7 7 -6 13 -29 13 -24 0 -48 -8 -54 -19z"/>
<path d="M2820 5649 c0 -17 -9 -26 -20 -19 -11 7 -20 3 -20 -9 0 -29 43 -25
85 7 46 35 44 52 -5 52 -23 0 -40 -13 -40 -31z"/>
<path d="M3049 5659 c-7 -12 -26 -17 -42 -11 -17 7 -24 3 -16 -9 7 -11 1 -36
-13 -55 -22 -28 -21 -30 0 -11 31 28 88 13 69 -18 -8 -13 -3 -15 13 -5 21 13
19 21 -7 40 -31 23 -30 28 12 56 25 18 34 32 21 33 -13 1 -30 -9 -37 -20z"/>
<path d="M2169 5515 c-22 -12 -43 -27 -49 -34 -5 -6 -31 -25 -57 -42 -60 -38
-110 -172 -71 -187 15 -6 32 -2 39 9 36 59 151 78 345 58 241 -24 342 -46 310
-65 -13 -9 -19 -28 -13 -44 9 -23 -1 -25 -56 -9 -37 11 -107 14 -155 7 -63
-10 -84 -7 -74 9 22 36 -67 27 -163 -16 -81 -37 -84 -42 -64 -95 16 -39 15
-57 -1 -63 -55 -18 23 -59 81 -43 38 11 59 10 59 -3 0 -13 25 -14 65 -5 36 8
128 12 205 9 144 -7 221 -8 265 -3 36 3 31 53 -9 93 -32 32 -31 33 15 18 27
-8 60 -15 74 -15 38 -1 30 -73 -10 -88 -82 -31 -122 -200 -41 -175 20 7 36 2
36 -11 0 -12 -8 -17 -18 -11 -10 6 -27 -16 -39 -49 -13 -36 -13 -64 -2 -71 28
-17 23 -49 -6 -39 -113 40 -186 -203 -91 -304 50 -54 107 -62 88 -14 -10 26
-4 30 33 20 144 -41 167 -41 130 2 -19 21 -31 44 -25 49 5 5 -38 3 -95 -4
-169 -23 -189 58 -35 136 50 24 78 45 64 45 -15 0 -21 9 -14 20 7 12 21 15 31
9 16 -10 29 48 21 96 -1 8 7 15 17 15 11 0 14 16 7 35 -11 30 -9 31 18 10 26
-22 29 -18 21 25 -6 30 -18 44 -32 36 -17 -10 -17 -6 0 15 45 57 55 212 14
227 -30 12 -31 17 -6 33 19 12 21 18 4 19 -31 0 -33 84 -2 115 17 17 14 30 -9
54 -17 17 -28 49 -24 71 4 22 -1 40 -11 40 -11 0 -19 -9 -19 -20 0 -35 -73
-22 -161 28 -63 36 -97 44 -130 32 -25 -10 -49 -14 -53 -9 -10 10 -143 32
-216 36 -27 2 -54 8 -60 13 -39 39 -96 54 -131 35z m704 -270 c18 -12 17 -24
-2 -50 -23 -31 -29 -32 -51 -5 -14 16 -37 30 -51 30 -15 0 -32 9 -39 20 -14
23 108 27 143 5z m-444 -160 c15 -51 0 -55 -83 -23 l-56 21 48 39 c52 42 69
35 91 -37z m331 16 c61 -47 56 -53 -74 -67 -86 -10 -102 -7 -93 17 6 16 19 29
29 29 10 0 18 14 18 30 0 41 60 37 120 -9z"/>
<path d="M4009 5461 c-10 -10 -50 -22 -89 -28 -38 -5 -70 -11 -70 -13 0 -8
-92 -18 -205 -22 -101 -4 -230 -54 -152 -59 9 -1 -4 -10 -31 -21 -32 -13 -56
-11 -75 4 -15 13 -27 16 -27 8 0 -8 -11 -6 -25 4 -47 37 -88 43 -88 14 0 -15
9 -28 21 -29 12 0 6 -13 -14 -28 -23 -17 -29 -32 -15 -40 11 -7 21 -22 21 -33
0 -11 -9 -15 -20 -8 -11 7 -20 3 -20 -7 0 -11 19 -26 42 -33 22 -8 36 -19 30
-25 -7 -6 -2 -23 9 -36 15 -18 15 -29 0 -38 -12 -8 -21 0 -21 17 0 16 -11 36
-25 44 -14 8 -18 7 -10 -2 8 -9 5 -28 -7 -42 -12 -15 -22 -67 -23 -117 -1 -50
-10 -91 -21 -91 -10 0 -8 -13 6 -30 14 -16 18 -30 10 -30 -8 0 -5 -12 8 -27
12 -15 19 -55 15 -90 -4 -34 0 -58 8 -52 17 10 50 -68 42 -97 -2 -10 5 -11 16
-5 39 25 204 -97 188 -139 -7 -18 -44 -22 -134 -15 -118 9 -126 7 -147 -40
-19 -41 -35 -49 -84 -43 -34 4 -62 -2 -62 -13 0 -34 63 -47 105 -20 104 65
282 81 246 23 -36 -59 83 18 131 84 65 90 71 114 29 114 -45 0 -213 172 -200
205 6 16 -10 39 -40 55 -28 15 -47 31 -41 36 5 5 24 -3 43 -18 23 -19 30 -20
20 -3 -25 41 8 72 36 33 20 -27 28 -29 41 -8 11 17 8 21 -7 12 -14 -9 -23 -1
-23 18 0 21 9 27 25 17 16 -9 15 -2 -3 20 -23 28 -32 30 -47 9 -11 -17 -13
-11 -5 19 10 36 2 49 -39 64 -28 11 -51 25 -51 32 0 6 11 5 23 -3 16 -10 20
-4 12 16 -8 20 6 40 42 58 29 14 71 40 93 57 33 25 32 22 -5 -20 -102 -117
-58 -141 247 -137 120 2 232 -2 248 -8 44 -16 100 -10 88 9 -6 10 6 18 26 18
27 1 24 7 -14 24 -48 21 -48 22 -8 30 24 4 52 27 63 51 20 45 -205 139 -234
98 -6 -8 -60 -15 -121 -15 -60 1 -141 -7 -180 -16 -83 -21 -65 7 26 40 58 22
60 24 15 25 -114 4 1 41 179 58 215 20 325 16 406 -15 79 -29 85 -27 89 28 7
80 -214 223 -266 172z m-562 -247 c7 7 13 3 13 -9 0 -13 -9 -28 -21 -36 -26
-16 -82 29 -67 54 7 12 21 11 37 -2 13 -11 31 -15 38 -7z m153 -127 c0 -19 16
-51 35 -72 34 -38 33 -39 -65 -24 -150 21 -165 36 -87 84 83 52 117 55 117 12z
m321 -56 c-25 -30 -141 -53 -141 -28 0 76 47 115 104 85 46 -24 54 -37 37 -57z"/>
<path d="M1880 5049 c0 -13 53 -69 64 -69 4 0 9 18 11 40 2 27 -10 40 -36 40
-22 0 -39 -5 -39 -11z"/>
<path d="M2482 4763 c-1 -17 -15 -22 -36 -14 -30 11 -29 8 3 -28 21 -23 59
-41 85 -41 27 0 43 -9 36 -20 -7 -11 -3 -20 9 -20 11 0 21 13 21 29 0 18 12
25 30 18 17 -6 30 -1 30 11 0 12 -13 22 -29 22 -18 0 -25 12 -19 29 10 24 0
26 -49 12 -42 -12 -64 -10 -70 6 -7 15 -10 14 -11 -4z"/>
<path d="M3684 4680 c-15 -39 -19 -41 -30 -13 -7 18 -24 33 -38 33 -18 -1 -17
-6 4 -20 17 -11 21 -20 10 -20 -21 -1 30 -39 53 -40 15 0 39 85 27 97 -5 5
-17 -12 -26 -37z"/>
<path d="M3780 4639 c0 -12 -8 -16 -18 -10 -9 6 -28 -2 -41 -17 -16 -20 -17
-32 -1 -42 11 -7 19 -4 15 7 -3 10 4 19 15 19 11 0 18 -9 15 -19 -4 -11 3 -14
15 -7 11 7 20 4 20 -7 0 -10 12 -23 27 -29 14 -6 26 2 26 18 0 15 -9 28 -21
28 -12 0 -8 9 8 20 27 18 27 22 0 40 -39 25 -60 25 -60 -1z"/>
<path d="M2810 4225 c-33 -4 -73 -12 -90 -19 -16 -7 -66 -14 -110 -15 -170 -7
-230 -82 -230 -291 0 -51 69 -63 97 -17 42 67 124 46 234 -58 38 -37 56 5 26
60 -14 25 -23 56 -21 69 3 13 -15 35 -40 49 -43 24 -40 27 54 39 55 7 109 6
120 -2 54 -40 203 -38 179 2 -6 10 10 18 37 18 46 0 47 3 26 70 -29 92 -98
116 -282 95z"/>
<path d="M3163 4194 c-28 -34 -19 -77 28 -137 42 -53 269 -102 269 -57 0 25
94 27 109 2 15 -24 -101 -82 -162 -82 -26 0 -47 -8 -47 -18 0 -16 98 -18 150
-3 66 19 81 -43 21 -84 -12 -8 -1 -15 24 -15 25 0 45 9 45 20 0 12 23 31 51
44 77 35 264 -66 203 -110 -17 -12 -15 -15 6 -9 18 5 30 31 29 62 -1 29 6 53
15 53 24 0 20 76 -7 125 -56 105 -150 162 -270 165 -45 1 -104 17 -131 34 -61
40 -302 47 -333 10z"/>
<path d="M4175 4102 c-34 -34 -33 -37 5 -72 39 -36 40 -35 40 37 0 83 1 82
-45 35z"/>
<path d="M2089 4079 c-7 -12 -6 -28 2 -35 8 -8 18 -3 23 10 7 20 15 20 35 0
15 -13 22 -32 16 -42 -6 -10 -1 -12 12 -4 16 10 16 24 -2 53 -27 43 -65 51
-86 18z"/>
<path d="M2105 3904 c2 -20 19 -35 39 -35 23 0 33 10 26 27 -5 15 -10 31 -10
36 0 4 -13 8 -29 8 -16 0 -27 -16 -26 -36z"/>
<path d="M3868 3706 c6 -7 -5 -26 -25 -44 -59 -53 -45 -151 24 -158 94 -11
173 81 92 106 -40 13 -40 15 -5 43 20 17 25 24 11 17 -14 -7 -25 -4 -25 6 0
11 -19 24 -42 30 -23 6 -37 6 -30 0z"/>
<path d="M2814 3666 c-21 -22 -34 -25 -34 -10 0 51 -58 21 -70 -37 -19 -84 -2
-93 102 -56 84 31 90 31 109 -5 15 -28 34 -34 79 -25 42 8 60 4 60 -14 0 -14
5 -20 12 -14 6 6 42 -1 79 -17 62 -26 69 -25 97 15 35 51 298 68 343 23 27
-26 49 -14 49 27 0 14 -13 21 -29 14 -32 -12 -91 35 -91 72 0 21 -23 23 -405
28 -118 2 -215 10 -215 18 0 27 -51 16 -86 -19z"/>
<path d="M2632 3011 c6 -15 1 -33 -11 -40 -12 -8 -16 -22 -10 -33 6 -10 22
-13 33 -5 13 7 16 4 9 -9 -8 -11 -6 -26 4 -32 10 -7 23 6 29 28 6 22 2 40 -7
40 -10 0 -13 12 -7 27 6 15 -3 33 -20 39 -20 8 -26 3 -20 -15z"/>
<path d="M3080 2687 c0 -12 -22 -31 -50 -43 -61 -28 -65 -54 -9 -59 39 -3 95
86 70 111 -6 6 -11 2 -11 -9z"/>
<path d="M2799 2617 c-7 -34 -14 -157 -8 -157 30 0 62 121 37 142 -15 12 -29
20 -29 15z"/>
<path d="M3325 2389 c-27 -48 -7 -148 28 -135 17 6 21 20 11 33 -9 13 -15 48
-14 78 2 63 -1 67 -25 24z"/>
<path d="M2760 2358 c0 -10 9 -18 20 -18 11 0 20 -14 20 -31 0 -16 16 -36 35
-43 19 -7 42 -23 50 -35 10 -14 14 -13 15 3 0 27 115 23 162 -5 24 -14 24 -12
0 18 -15 19 -32 30 -37 24 -6 -5 -40 14 -78 42 -66 51 -187 79 -187 45z"/>
<path d="M3487 2208 c0 -15 11 -28 25 -28 13 0 38 -5 54 -11 18 -7 33 5 40 33
8 31 6 38 -10 22 -13 -13 -38 -15 -65 -4 -33 12 -44 9 -44 -12z"/>
<path d="M3165 2160 c-22 -35 -20 -40 15 -40 22 0 40 -10 40 -21 0 -12 10 -15
21 -8 14 8 9 22 -13 38 -19 14 -28 35 -20 48 8 13 7 23 -2 23 -9 0 -28 -18
-41 -40z"/>
<path d="M2975 2127 c14 -6 20 -19 14 -29 -6 -10 -1 -18 11 -18 12 0 17 -9 10
-20 -7 -12 -20 -16 -28 -11 -9 5 -14 -14 -13 -43 2 -29 16 -57 32 -61 24 -7
24 -4 -1 13 -22 16 -23 21 -4 22 15 0 20 10 13 21 -7 12 2 38 21 59 33 36 -5
84 -64 78 -9 0 -5 -6 9 -11z"/>
<path d="M271 7249 c-40 -41 -39 -58 4 -92 31 -24 32 -24 8 7 -22 29 -20 37
15 60 44 27 56 56 23 56 -10 0 -32 -14 -50 -31z"/>
<path d="M550 6540 c-7 -11 6 -20 28 -20 35 0 39 -9 29 -60 -13 -67 13 -79 56
-25 24 32 24 32 -8 8 -30 -24 -35 -24 -35 4 0 17 15 39 33 49 22 13 25 23 10
32 -13 8 -23 9 -23 2 0 -6 -17 -2 -39 9 -26 14 -43 14 -51 1z"/>
<path d="M5820 5521 c0 -12 13 -21 28 -21 19 0 25 -14 17 -43 -8 -30 -4 -39
12 -29 13 8 18 25 10 37 -9 14 -2 17 20 9 55 -21 37 3 -27 36 -34 18 -60 22
-60 11z"/>
<path d="M5580 4595 c0 -31 -18 -58 -50 -75 -45 -24 -47 -28 -15 -52 49 -38
80 -34 95 11 6 21 30 41 52 45 52 8 57 36 12 64 -27 17 -40 15 -56 -8 -19 -25
-20 -25 -11 4 6 19 3 40 -8 47 -10 6 -19 -10 -19 -36z"/>
<path d="M1432 4423 c-8 -13 -4 -23 9 -23 18 0 18 -7 0 -29 -20 -24 -17 -28
17 -26 23 2 46 17 53 34 6 16 5 23 -3 16 -8 -8 -25 0 -38 18 -17 23 -28 26
-38 10z"/>
<path d="M5660 4053 c0 -21 15 -28 50 -21 53 9 61 -4 31 -51 -27 -42 15 -90
51 -59 20 16 22 32 7 61 -12 21 -15 47 -8 59 9 13 -4 19 -34 15 -26 -3 -58 1
-72 10 -16 10 -25 4 -25 -14z"/>
<path d="M5607 3971 c0 -16 8 -24 18 -18 10 6 15 -5 11 -24 -3 -19 3 -38 14
-42 11 -4 20 15 20 41 0 27 -7 44 -15 39 -8 -5 -15 0 -15 12 0 11 -7 21 -17
21 -9 0 -16 -13 -16 -29z"/>
<path d="M5642 3734 c-12 -12 -22 -40 -21 -63 l0 -41 35 42 c20 23 48 46 64
51 20 7 16 13 -14 21 -23 6 -52 2 -64 -10z"/>
<path d="M1220 3282 c0 -13 -12 -21 -26 -18 -14 3 -28 -3 -30 -14 -3 -11 13
-23 35 -26 24 -4 41 4 41 20 1 19 6 18 20 -4 11 -16 20 -20 20 -7 0 12 -13 33
-30 47 -22 18 -30 19 -30 2z"/>
<path d="M4480 2967 c1 -38 37 -71 61 -56 16 10 20 7 11 -8 -9 -14 -2 -23 17
-23 17 0 31 -7 31 -16 0 -25 137 -174 149 -162 16 17 -34 158 -57 159 -12 1
-4 9 18 17 32 13 19 22 -70 52 -61 20 -121 40 -135 45 -14 5 -25 2 -25 -8z"/>
<path d="M1505 2820 c-19 -23 -36 -52 -37 -65 -1 -14 -3 -41 -5 -61 -2 -20
-10 -32 -18 -27 -9 5 -14 -21 -12 -59 1 -37 -4 -73 -14 -78 -30 -19 -93 -241
-104 -365 -1 -14 -8 -25 -16 -25 -14 0 -22 -36 -52 -240 -11 -76 -9 -86 15
-67 25 21 73 151 85 229 2 15 14 55 27 88 25 65 90 285 127 430 12 50 32 108
44 130 58 108 28 189 -40 110z"/>
<path d="M4794 2787 c-23 -23 -15 -103 11 -114 20 -8 20 -10 0 -11 -14 -1 -25
-12 -25 -23 0 -12 8 -17 17 -11 9 6 16 -2 16 -18 0 -16 -7 -24 -16 -18 -9 6
-11 -4 -5 -21 7 -17 21 -31 31 -31 11 0 13 -11 4 -25 -11 -19 -7 -18 17 1 36
29 68 0 44 -39 -9 -15 -5 -18 12 -7 19 12 23 7 14 -16 -7 -18 -4 -38 6 -44 10
-6 11 -30 3 -54 -33 -89 3 -162 49 -101 16 21 27 25 27 10 2 -46 4 -55 24 -79
11 -13 15 -33 8 -44 -6 -10 -1 -26 12 -34 14 -9 18 -6 9 9 -8 13 -10 23 -5 23
6 0 34 -49 63 -109 62 -126 105 -171 128 -135 30 49 4 146 -64 239 -39 52 -69
101 -67 109 2 8 -38 75 -89 150 -50 75 -98 163 -106 196 -8 33 -26 66 -39 74
-16 11 -15 15 4 16 22 0 23 6 3 30 -13 16 -34 24 -45 17 -12 -7 -16 -5 -9 6
14 24 -14 72 -32 54z"/>
<path d="M1340 2746 c-49 -16 -105 -49 -124 -73 l-34 -43 11 50 c8 39 6 43
-11 20 -11 -16 -30 -30 -41 -30 -12 0 -21 -9 -22 -20 -1 -31 86 -37 110 -7 11
15 39 29 61 32 78 9 100 16 103 33 2 10 15 25 30 34 51 31 6 34 -83 4z"/>
<path d="M5009 2705 c7 -14 4 -25 -7 -25 -11 0 -16 -13 -9 -30 6 -16 19 -25
29 -19 10 6 12 -3 6 -20 -8 -20 -1 -31 19 -31 52 0 52 27 -1 90 -28 33 -44 49
-37 35z"/>
<path d="M997 2612 c-15 -33 -36 -46 -66 -43 -42 4 -44 0 -24 -52 27 -70 51
-74 44 -7 -4 35 1 45 17 33 12 -10 47 -15 77 -12 30 3 55 -3 55 -15 0 -11 17
1 38 27 l39 47 -53 14 c-32 9 -58 6 -66 -7 -7 -12 -25 -18 -38 -14 -19 7 -16
18 9 43 19 19 24 34 12 34 -12 0 -32 -22 -44 -48z"/>
<path d="M5126 2547 c-6 -15 6 -52 26 -82 20 -30 35 -62 32 -70 -2 -8 5 -15
16 -15 11 0 35 -36 53 -81 38 -97 104 -145 96 -70 -9 83 -31 131 -60 131 -18
0 -33 30 -41 80 -7 44 -21 80 -31 80 -9 0 -17 12 -17 27 0 34 -61 34 -74 0z"/>
<path d="M5780 2546 c0 -14 9 -26 20 -26 11 0 20 9 20 20 0 11 10 20 21 20 12
0 16 -8 10 -19 -6 -10 -4 -23 5 -28 8 -6 17 7 19 28 2 29 -9 37 -46 34 -27 -2
-49 -15 -49 -29z"/>
<path d="M867 2525 c7 -12 -2 -37 -20 -55 -24 -24 -37 -27 -47 -9 -11 18 -17
18 -23 0 -4 -12 -28 -24 -52 -26 -25 -2 -45 -12 -45 -21 0 -10 -13 -13 -29 -7
-18 7 -34 -5 -42 -30 -7 -22 -18 -35 -24 -28 -7 6 -33 -3 -59 -20 -26 -17 -55
-26 -64 -20 -9 5 -34 -10 -54 -34 -30 -34 -30 -38 -4 -18 29 22 41 20 78 -15
45 -42 78 -39 78 6 0 42 120 137 160 126 24 -6 40 4 47 29 9 36 51 43 74 13 6
-8 21 12 33 44 16 42 16 64 1 73 -12 7 -15 4 -8 -8z"/>
<path d="M5356 2439 c22 -23 53 -44 68 -46 16 -2 64 -38 107 -80 67 -66 81
-71 101 -44 26 36 58 43 36 8 -9 -15 -5 -18 9 -9 33 20 9 52 -38 52 -22 0 -39
10 -39 21 0 12 -8 16 -18 10 -10 -6 -28 14 -39 44 -11 30 -21 44 -21 30 -2
-33 -32 -32 -66 2 -14 14 -52 33 -83 40 l-56 15 39 -43z"/>
<path d="M4620 2428 c0 -17 -9 -25 -20 -18 -23 14 -24 10 -30 -105 -2 -47 3
-85 13 -85 9 0 16 7 15 15 -7 43 4 106 17 98 8 -5 26 3 39 18 20 20 20 28 0
36 -18 8 -18 14 3 29 21 15 20 21 -5 31 -21 7 -32 1 -32 -19z"/>
<path d="M1707 2324 c-18 -29 -12 -34 44 -34 68 0 72 16 12 48 -26 14 -41 10
-56 -14z"/>
<path d="M5739 2315 c-1 -14 -6 -45 -10 -70 -5 -25 1 -45 13 -45 12 0 17 -13
11 -30 -8 -20 1 -30 28 -30 24 0 47 -20 58 -48 11 -27 32 -56 47 -65 16 -10
48 -48 72 -87 l42 -70 0 94 c0 83 -7 98 -65 139 -36 25 -71 53 -78 64 -7 10
-25 11 -40 2 -21 -13 -20 -8 2 19 26 32 25 35 -10 32 -64 -7 -81 -1 -49 20 17
11 20 20 7 20 -13 0 -19 17 -13 40 6 22 5 40 -2 40 -6 0 -13 -11 -13 -25z"/>
<path d="M4176 2185 c-85 -101 -117 -246 -35 -164 62 62 77 23 46 -126 -39
-190 -12 -168 75 61 21 54 65 74 113 52 19 -9 45 -16 58 -17 13 -1 43 -19 66
-40 50 -46 96 -56 114 -26 8 12 4 15 -10 7 -13 -8 -23 -2 -23 15 0 17 -16 35
-35 42 -20 6 -88 60 -152 121 -123 116 -168 132 -217 75z"/>
<path d="M362 2144 c-27 -51 42 -54 74 -2 21 33 19 38 -15 38 -22 0 -48 -16
-59 -36z"/>
<path d="M4887 2049 c-6 -14 -23 -22 -38 -16 -15 6 -48 -9 -73 -34 l-46 -44
48 25 c36 18 50 19 62 0 10 -17 18 -15 26 6 6 17 39 36 73 44 33 7 61 19 61
27 0 25 -103 19 -113 -8z"/>
<path d="M35 2046 c-22 -6 -35 -28 -35 -62 1 -43 5 -48 21 -24 29 43 61 100
55 98 -3 -2 -22 -7 -41 -12z"/>
<path d="M5460 1975 c0 -10 20 -12 45 -5 41 11 42 9 11 -15 -23 -19 -27 -36
-15 -56 15 -24 18 -22 19 7 0 20 8 31 19 25 29 -18 44 22 16 44 -31 24 -95 25
-95 0z"/>
<path d="M4020 1910 c-15 -27 -38 -50 -51 -50 -37 0 -51 -80 -16 -94 69 -26
129 29 124 114 -6 93 -20 100 -57 30z"/>
<path d="M843 1897 c-18 -29 -19 -37 -2 -27 17 11 21 -13 16 -88 -6 -90 -2
-102 31 -102 21 0 33 6 26 13 -8 7 2 25 21 40 24 18 28 31 13 42 -13 8 -29 44
-37 80 -18 82 -36 93 -68 42z"/>
<path d="M1989 1921 c-22 -9 -85 -45 -139 -79 -54 -34 -110 -62 -125 -62 -15
0 -53 -19 -85 -43 -32 -24 -75 -45 -95 -46 -44 -4 -85 -28 -85 -50 0 -22 78
-2 134 34 24 15 65 25 90 22 25 -3 57 1 71 10 14 9 50 20 79 26 30 5 104 26
165 47 l111 38 85 -50 c47 -27 85 -63 85 -78 0 -16 23 -35 50 -42 28 -7 50
-20 50 -30 0 -10 9 -18 21 -18 11 0 40 -18 64 -40 47 -44 75 -51 75 -19 0 35
-114 134 -184 160 -38 14 -103 70 -152 132 -87 109 -125 124 -215 88z"/>
<path d="M1431 1852 c-54 -13 -102 -34 -106 -48 -6 -16 4 -19 27 -11 22 9 30
6 21 -8 -8 -12 -3 -29 10 -37 13 -8 18 -6 10 6 -7 12 29 36 82 56 178 66 154
89 -44 42z"/>
<path d="M5190 1583 c-6 -17 0 -24 16 -17 15 5 38 -7 51 -28 13 -21 35 -38 48
-38 18 1 17 5 -2 18 -23 14 -23 19 0 30 21 9 21 15 2 24 -14 6 -22 17 -17 25
4 7 -13 13 -40 13 -26 0 -52 -12 -58 -27z"/>
<path d="M4042 1545 c-12 -19 -21 -26 -21 -16 -1 26 -69 -71 -74 -104 -2 -14
6 -31 18 -38 12 -8 15 -4 7 10 -9 14 -2 23 17 23 17 0 29 7 28 15 -9 35 52
126 77 116 14 -5 26 -1 26 10 0 32 -57 21 -78 -16z"/>
<path d="M1432 1528 c-6 -15 -28 -28 -50 -28 -50 0 -72 -32 -33 -47 17 -6 35
-3 42 8 6 10 30 19 52 19 22 0 61 16 87 36 l45 36 -66 2 c-40 1 -71 -9 -77
-26z"/>
<path d="M2567 1545 c7 -12 2 -26 -12 -32 -18 -7 -12 -21 17 -47 23 -20 48
-53 55 -73 7 -20 30 -41 51 -47 25 -6 34 -22 27 -48 -5 -21 -1 -38 10 -38 11
0 18 20 17 45 -2 25 6 53 17 62 12 9 2 12 -23 7 -25 -6 -55 3 -68 18 -18 22
-16 28 10 28 17 0 32 9 32 20 0 19 -11 23 -80 29 -16 1 -28 17 -24 35 3 18 -6
40 -19 48 -14 8 -18 6 -10 -7z"/>
<path d="M1125 1447 c-14 -6 -20 -20 -13 -31 8 -13 -5 -16 -34 -8 -27 6 -37 6
-23 0 14 -6 21 -19 15 -28 -5 -9 4 -21 21 -28 18 -6 26 -3 19 8 -7 11 -4 20 6
20 11 0 24 18 30 40 6 22 9 39 7 38 -2 0 -14 -6 -28 -11z"/>
<path d="M5658 1403 c-8 -74 -6 -90 16 -98 15 -5 22 11 18 44 -6 54 -30 93
-34 54z"/>
<path d="M5780 1407 c-16 -6 -42 -14 -57 -19 -22 -7 -23 -14 -3 -38 13 -16 32
-25 42 -19 17 11 66 91 54 87 -3 0 -19 -6 -36 -11z"/>
<path d="M3838 1355 c-13 -25 -34 -52 -46 -60 -12 -8 1 -12 28 -8 33 5 50 20
50 45 0 21 14 44 30 52 25 11 24 13 -4 15 -19 0 -45 -19 -58 -44z"/>
<path d="M1330 1362 c-41 -12 -65 -62 -30 -62 11 0 20 10 20 21 0 12 7 17 15
13 8 -5 32 -3 54 5 51 19 -2 39 -59 23z"/>
<path d="M3613 1343 c-18 -20 -33 -47 -33 -60 0 -12 -10 -23 -21 -23 -12 0
-16 -9 -8 -21 18 -30 61 11 86 82 24 69 21 72 -24 22z"/>
<path d="M1153 1291 c-20 -15 -54 -25 -75 -21 -27 6 -38 -4 -38 -31 0 -47 19
-49 71 -10 22 17 65 30 96 30 36 1 53 10 48 26 -12 36 -59 39 -102 6z"/>
<path d="M0 1072 c0 -72 6 -88 30 -79 34 13 41 67 9 67 -12 0 -16 17 -10 38 7
21 3 44 -8 51 -13 9 -21 -20 -21 -77z"/>
<path d="M5594 1105 c13 -4 19 -21 13 -36 -6 -16 -1 -29 12 -29 13 0 18 9 11
20 -11 18 15 29 55 22 8 -1 15 6 15 17 0 10 -29 17 -65 16 -36 -1 -54 -5 -41
-10z"/>
<path d="M405 1044 c-6 -16 1 -36 16 -45 32 -19 65 -4 48 22 -6 10 3 13 20 7
17 -7 31 -20 31 -30 0 -10 9 -18 19 -18 11 0 15 14 8 30 -6 17 -24 30 -40 30
-16 0 -25 7 -20 16 6 8 -8 15 -31 15 -22 0 -45 -12 -51 -27z"/>
<path d="M350 1021 c-6 -10 9 -32 34 -50 30 -20 35 -31 15 -31 -24 -1 -24 -4
-2 -18 19 -12 21 -20 5 -28 -15 -7 -14 -9 3 -6 14 3 28 20 31 37 7 38 -69 122
-86 96z"/>
<path d="M770 1020 c-7 -12 -23 -15 -35 -7 -14 9 -17 1 -8 -21 7 -20 13 -39
13 -44 0 -4 10 -8 21 -8 12 0 16 9 9 21 -8 13 6 17 37 11 47 -8 86 28 58 56
-19 19 -82 14 -95 -8z"/>
<path d="M1043 1022 c-14 -9 -25 -24 -24 -34 2 -10 -17 -23 -43 -29 -39 -9
-41 -13 -12 -24 19 -7 60 0 90 16 31 16 44 29 29 29 -16 0 -23 12 -16 30 14
35 12 35 -24 12z"/>
<path d="M620 999 c0 -10 -22 -24 -50 -31 -27 -7 -45 -20 -38 -30 6 -10 21
-13 32 -5 14 8 16 4 8 -10 -8 -13 -21 -20 -29 -15 -7 5 -31 -4 -52 -20 -38
-28 -38 -28 0 -28 30 -1 32 -5 12 -18 -19 -12 -21 -21 -5 -31 19 -12 30 11 25
52 -1 8 25 23 58 34 76 27 85 -28 9 -57 -27 -10 -50 -22 -50 -27 0 -4 23 -3
50 2 28 5 50 18 50 29 0 10 8 13 19 7 10 -6 25 -1 33 12 9 14 6 18 -9 9 -15
-10 -23 6 -23 48 0 34 8 58 17 52 9 -6 16 1 16 15 0 14 -16 26 -36 28 -20 1
-37 -6 -37 -16z"/>
<path d="M1980 940 c0 -11 -13 -20 -30 -20 -16 0 -30 -9 -30 -20 0 -26 24 -25
93 1 45 17 50 25 26 40 -38 24 -59 24 -59 -1z"/>
<path d="M0 922 c0 -11 15 -15 33 -8 26 10 31 5 21 -21 -7 -18 -5 -33 4 -33
18 0 49 -76 44 -106 -2 -10 7 -11 18 -4 15 10 16 21 1 39 -22 26 48 71 111 71
17 0 25 9 18 20 -8 13 -26 13 -53 -1 -31 -17 -47 -14 -73 15 -38 40 -124 60
-124 28z"/>
<path d="M783 904 c-21 -38 -21 -46 1 -43 55 8 87 -1 62 -17 -18 -11 -14 -22
13 -39 35 -22 42 -2 20 55 -2 6 -2 18 -1 27 2 10 -10 13 -26 7 -18 -7 -32 2
-37 22 -6 28 -11 26 -32 -12z"/>
<path d="M3401 912 c-23 -28 -9 -92 20 -92 10 0 26 16 36 35 25 47 -23 96 -56
57z"/>
<path d="M2000 820 c-38 -8 -92 -24 -120 -35 -27 -11 -59 -24 -70 -28 -11 -4
-18 -14 -15 -23 4 -10 -3 -12 -13 -5 -11 6 -25 2 -32 -9 -7 -11 -23 -14 -36
-6 -15 9 -15 2 2 -18 23 -29 33 -29 80 -4 74 38 89 35 60 -12 -20 -31 -20 -44
2 -65 17 -15 23 -16 15 -2 -7 13 -2 28 12 34 17 6 17 10 2 11 -18 2 -18 14 0
52 20 44 64 62 121 51 10 -2 24 5 30 15 7 9 30 28 52 40 46 26 18 27 -90 4z"/>
<path d="M2421 822 c-55 -15 -78 -55 -32 -55 17 0 31 7 31 16 0 10 14 17 30
17 17 0 30 9 30 20 0 11 -2 19 -5 18 -3 -1 -27 -8 -54 -16z"/>
<path d="M3269 819 c-7 -12 -25 -17 -40 -12 -14 6 -37 -2 -50 -18 -13 -16 -16
-30 -6 -30 9 -1 -3 -10 -28 -20 -29 -11 -40 -28 -32 -48 6 -18 -1 -47 -15 -66
-15 -19 -4 -15 24 10 59 53 78 56 78 15 0 -120 136 -86 164 41 18 77 -61 182
-95 128z"/>
<path d="M2886 754 c8 -20 5 -31 -5 -25 -30 19 -48 -30 -20 -56 19 -18 21 -16
9 7 -10 18 -9 23 2 13 10 -9 19 -22 19 -30 6 -70 38 -143 62 -143 16 0 24 9
17 20 -7 11 -1 25 14 30 15 6 28 39 29 75 2 59 1 61 -25 25 -27 -37 -28 -37
-28 3 0 22 -20 58 -43 79 -41 35 -43 35 -31 2z"/>
<path d="M5980 731 c0 -27 -10 -55 -23 -63 -14 -9 -18 -5 -9 9 21 34 -39 28
-68 -7 -13 -16 -34 -24 -46 -16 -13 8 -16 0 -8 -21 11 -30 7 -31 -31 -10 -42
22 -43 21 -15 -13 27 -34 27 -36 -6 -24 -22 8 -31 6 -24 -6 7 -11 2 -20 -11
-20 -18 0 -18 -7 -1 -27 31 -38 122 -37 108 0 -8 22 -17 23 -39 5 -15 -13 -34
-17 -42 -10 -19 19 35 51 86 52 23 0 52 11 65 24 19 19 24 18 24 -4 0 -21 6
-22 22 -6 24 24 50 186 30 186 -7 0 -12 -22 -12 -49z"/>
<path d="M280 720 c17 -11 23 -20 14 -20 -8 0 -5 -19 7 -42 16 -30 29 -36 44
-21 15 15 15 29 -2 49 -12 15 -17 34 -9 41 7 7 -9 13 -36 13 -38 -1 -42 -5
-18 -20z"/>
<path d="M873 695 c6 -9 -15 -11 -46 -5 l-57 12 48 -28 c31 -19 40 -33 24 -43
-12 -7 -17 -22 -11 -32 6 -11 2 -19 -10 -19 -11 0 -21 -9 -21 -20 0 -34 119
-9 148 31 24 32 23 41 -3 60 -25 18 -26 26 -5 39 17 11 21 8 12 -7 -19 -31 -2
-29 24 3 17 20 7 25 -46 25 -37 0 -62 -7 -57 -16z"/>
<path d="M2063 702 c-14 -9 -48 -12 -74 -7 -36 7 -49 1 -49 -23 0 -17 9 -32
20 -32 11 0 20 9 20 19 0 11 12 15 26 10 34 -13 127 21 101 36 -10 7 -30 5
-44 -3z"/>
<path d="M2318 705 c-2 -8 -2 -21 -1 -29 2 -8 -11 -9 -27 -3 -39 15 -38 -22 1
-62 40 -40 62 -39 77 1 10 26 18 28 41 9 16 -14 37 -20 47 -14 20 13 18 106
-3 98 -7 -3 -25 -5 -41 -5 -15 0 -32 -18 -38 -40 -6 -22 -25 -40 -44 -40 -30
0 -30 3 -1 32 17 17 26 39 20 50 -14 22 -28 23 -31 3z"/>
<path d="M2580 700 c0 -11 10 -18 23 -15 12 3 26 -6 31 -20 6 -15 -2 -21 -19
-14 -16 6 -29 -1 -29 -15 -1 -14 -4 -36 -8 -49 -8 -22 0 -27 40 -27 30 0 46
102 20 132 -27 33 -58 37 -58 8z"/>
<path d="M3451 675 c24 -124 50 -397 45 -475 -5 -73 0 -90 29 -92 25 -3 26 -1
5 5 -22 8 -25 19 -10 47 37 69 20 482 -22 532 -34 42 -57 34 -47 -17z"/>
<path d="M5558 695 c-12 -41 -11 -75 3 -75 10 0 12 -14 6 -31 -7 -17 -24 -27
-39 -21 -36 14 -54 -20 -52 -95 1 -34 -9 -68 -21 -76 -16 -10 -14 -24 6 -49
16 -20 20 -30 9 -24 -11 7 -38 0 -59 -16 -21 -15 -31 -28 -22 -28 9 0 5 -13
-9 -30 -20 -24 -20 -30 3 -30 22 -1 22 -4 1 -17 -14 -9 -23 -29 -20 -45 3 -16
-8 -27 -29 -25 -19 1 -35 -10 -35 -25 0 -15 -13 -28 -30 -28 -16 0 -30 9 -30
20 0 30 -33 24 -68 -11 -28 -28 -36 -27 -82 3 -41 27 -57 29 -76 9 -19 -19
-17 -23 6 -20 50 6 87 0 74 -13 -7 -7 2 -27 19 -44 26 -26 33 -26 49 -2 12 20
17 21 18 3 0 -14 23 -25 52 -25 38 0 49 8 41 30 -7 18 0 30 18 30 16 0 29 -11
29 -25 1 -17 7 -15 20 5 17 27 19 27 20 0 0 -19 6 -22 15 -9 8 12 31 28 50 35
20 7 33 24 30 38 -3 15 10 23 30 20 19 -3 35 2 35 11 0 10 18 37 41 61 22 24
30 44 17 44 -16 0 -19 25 -9 85 24 150 23 165 -12 160 -18 -3 -38 8 -44 25 -7
18 -1 30 15 30 15 0 49 19 75 42 26 22 36 36 23 29 -13 -7 -33 5 -45 27 -15
28 -14 41 4 49 20 8 20 10 0 11 -14 1 -26 0 -27 -3z m-50 -503 c-11 -29 -67
-60 -81 -45 -19 19 21 73 55 73 23 0 33 -10 26 -28z"/>
<path d="M155 630 c-9 -45 27 -82 53 -55 22 22 12 81 -16 91 -18 7 -31 -6 -37
-36z"/>
<path d="M489 630 c-30 -23 -31 -27 -6 -19 36 13 41 -35 8 -65 -10 -9 -11 -5
-3 9 8 14 5 25 -7 25 -11 0 -21 -14 -21 -31 0 -24 12 -28 45 -18 47 14 102 55
65 48 -43 -8 -59 3 -30 20 21 14 23 26 9 40 -15 15 -33 12 -60 -9z"/>
<path d="M1144 616 c-36 -36 -29 -74 28 -142 28 -33 48 -47 45 -29 -4 18 -2
32 3 32 6 0 35 10 65 21 38 14 55 15 55 0 0 -11 9 -15 20 -8 11 7 20 2 20 -10
0 -12 10 -16 23 -8 15 9 18 5 8 -10 -8 -14 -28 -20 -43 -14 -43 17 -33 -4 14
-29 30 -16 39 -16 29 -1 -7 12 0 22 17 22 49 0 77 72 48 120 -29 45 -47 50
-68 17 -10 -16 -23 -11 -43 15 -18 24 -26 27 -21 8 14 -44 -33 -80 -104 -80
-56 0 -60 3 -33 30 35 35 61 40 41 7 -8 -13 -3 -19 13 -13 47 15 42 48 -11 73
-65 29 -76 29 -106 -1z"/>
<path d="M2783 606 c13 -15 17 -33 10 -40 -11 -11 43 -64 67 -65 50 -3 11 116
-40 123 -48 7 -55 4 -37 -18z"/>
<path d="M1028 568 c7 -17 12 -46 12 -63 0 -51 30 -6 31 47 0 28 -11 48 -27
48 -18 0 -24 -12 -16 -32z"/>
<path d="M1523 562 c-20 -13 -19 -23 7 -49 39 -39 83 -43 97 -8 6 15 10 11 11
-10 1 -19 -11 -35 -28 -35 -16 0 -30 -9 -30 -20 0 -11 21 -20 46 -20 25 0 56
-10 67 -21 15 -15 38 -7 79 29 52 45 54 51 18 52 -30 0 -33 5 -13 18 21 13 20
19 -5 29 -18 6 -32 5 -32 -3 0 -9 -18 -17 -40 -19 -23 -1 -40 10 -40 26 0 36
-43 38 -79 4 -18 -17 -23 -17 -14 -1 17 30 -11 48 -44 28z"/>
<path d="M4671 564 c-45 -44 22 -58 79 -16 35 25 34 27 -15 27 -30 0 -58 -5
-64 -11z"/>
<path d="M5325 567 c-14 -6 -25 -21 -25 -35 0 -13 -25 -25 -55 -26 -96 -2
-103 -5 -100 -44 3 -39 85 -21 120 28 8 11 15 13 15 4 0 -8 26 -2 57 15 32 16
64 24 70 17 7 -7 13 -3 13 9 0 16 -52 50 -67 43 -1 0 -14 -6 -28 -11z"/>
<path d="M4519 519 c-22 -13 -20 -17 11 -16 22 0 61 -6 88 -14 36 -11 45 -8
38 13 -11 32 -96 43 -137 17z"/>
<path d="M2141 493 c-1 -32 -6 -34 -31 -13 -17 14 -37 20 -44 13 -7 -7 0 -13
16 -13 23 -1 23 -4 -2 -20 -21 -14 -22 -19 -4 -20 16 0 23 -20 20 -54 -4 -39
4 -57 29 -62 22 -4 35 5 35 27 0 19 11 29 27 23 14 -6 26 2 26 16 0 15 -12 21
-30 15 -18 -7 -24 -3 -16 10 7 12 5 42 -6 68 -15 38 -19 40 -20 10z"/>
<path d="M1858 495 c-2 -8 -4 -22 -6 -30 -1 -8 -9 -25 -17 -37 -23 -37 9 -50
35 -14 23 31 30 30 94 -8 l69 -40 0 55 c0 55 -19 63 -71 30 -21 -12 -24 -10
-12 9 12 20 7 23 -20 13 -22 -9 -43 -4 -53 11 -9 14 -18 19 -19 11z"/>
<path d="M4219 449 c-15 -19 -17 -29 -4 -25 12 3 35 -11 50 -32 27 -36 29 -36
25 10 -2 26 6 55 18 63 13 8 4 15 -21 15 -23 0 -54 -14 -68 -31z"/>
<path d="M4806 445 c-2 -19 -6 -52 -10 -73 -3 -21 5 -42 19 -47 15 -5 21 3 14
20 -6 16 3 40 20 54 26 21 26 29 2 53 -36 36 -42 35 -45 -7z"/>
<path d="M470 439 c-7 -11 -17 -53 -22 -92 -5 -40 -15 -82 -23 -95 -22 -36
-28 -252 -7 -252 29 0 42 28 55 124 6 47 15 89 18 94 4 4 -1 23 -12 43 -11 22
-11 38 0 42 26 10 43 117 18 117 -10 0 -14 9 -7 20 7 11 8 20 2 20 -5 0 -15
-9 -22 -21z"/>
<path d="M2270 420 c-26 -41 -28 -103 -4 -94 13 5 22 28 19 52 -3 29 3 39 18
30 14 -9 18 -5 9 9 -18 28 -26 29 -42 3z"/>
<path d="M2600 425 c0 -14 0 -30 0 -35 2 -39 -51 -62 -73 -32 -13 17 -31 33
-40 34 -10 1 -32 8 -50 16 -44 20 -117 -20 -117 -64 1 -29 3 -30 20 -4 13 20
19 22 20 5 0 -14 14 -25 30 -25 27 0 39 24 32 66 -2 10 6 11 18 4 11 -7 16
-20 10 -30 -10 -17 27 -34 109 -50 23 -4 37 1 30 11 -6 10 -3 19 8 19 28 0 42
50 21 82 -12 20 -17 21 -18 3z"/>
<path d="M251 329 c3 -28 18 -65 32 -83 15 -18 24 -36 20 -41 -3 -4 -2 -13 3
-18 13 -13 3 94 -14 148 -20 61 -48 57 -41 -6z"/>
<path d="M2960 334 c0 -20 -9 -31 -20 -24 -11 7 -15 0 -9 -16 6 -15 -2 -27
-18 -27 -18 0 -25 12 -18 31 15 43 -4 23 -35 -36 -21 -42 -20 -46 7 -36 17 7
37 4 44 -7 6 -10 -2 -19 -19 -19 -16 0 -34 -8 -40 -17 -11 -18 58 -15 122 5
21 7 39 30 41 52 1 25 -6 36 -20 27 -13 -8 -17 -2 -10 17 6 16 3 42 -7 58 -14
22 -17 21 -18 -8z"/>
<path d="M2652 309 c-17 -13 -26 -29 -18 -36 7 -7 4 -13 -7 -13 -11 0 -20 -13
-20 -30 0 -16 7 -30 15 -30 8 0 19 -11 24 -25 4 -14 6 -10 3 9 -6 41 28 86 79
104 34 11 35 9 10 -22 -27 -34 -25 -34 26 -1 39 25 56 28 63 9 6 -14 11 -9 11
11 1 19 -9 36 -23 37 -14 1 -49 3 -79 5 -29 2 -68 -6 -84 -18z"/>
<path d="M3220 206 c0 -54 86 -51 107 5 8 20 -5 26 -48 23 -32 -2 -59 -15 -59
-28z"/>
<path d="M180 187 c0 -16 7 -25 16 -19 9 5 34 -30 55 -79 21 -49 46 -89 54
-89 30 0 15 116 -16 128 -17 6 -27 19 -22 27 5 9 -12 26 -39 38 -39 19 -48 18
-48 -6z"/>
<path d="M5952 190 c-36 -37 -42 -70 -13 -70 22 0 69 79 55 93 -5 5 -24 -6
-42 -23z"/>
<path d="M4614 114 c6 -10 -7 -12 -30 -5 -33 10 -39 6 -30 -27 10 -40 11 -40
68 3 69 51 67 46 19 46 -21 0 -33 -8 -27 -17z"/>
<path d="M5978 75 c-2 -14 -2 -31 -1 -39 1 -7 -16 -12 -37 -10 -22 1 -40 10
-40 19 0 10 -9 12 -20 5 -40 -25 -18 -46 48 -46 57 0 67 7 67 48 0 50 -13 67
-17 23z"/>
<path d="M4360 42 c0 -9 -27 -15 -60 -12 -33 3 -60 -2 -60 -10 0 -9 61 -16
135 -16 87 -1 121 5 95 15 -22 9 -47 12 -55 7 -8 -4 -15 1 -15 13 0 11 -9 21
-20 21 -11 0 -20 -8 -20 -18z"/>
</g>
</svg>
